<svg width="332" height="70" viewBox="0 0 332 70" fill="none" xmlns="http://www.w3.org/2000/svg">
<path d="M0.351074 8.12373V67.9769H10.0346V31.0088L38.2048 67.9769H51.4096V8.12373H43.4867V45.9721L15.3165 8.12373H0.351074Z" fill="#212121"/>
<path d="M59.3325 49.4928V29.2484L73.4176 39.8107L59.3325 49.4928Z" fill="#212121"/>
<path d="M88.383 67.0967L69.016 8.12373H85.742L100.707 49.4928L113.912 8.12373H124.476L105.109 67.0967H88.383Z" fill="#212121"/>
<path d="M126.237 67.9769V8.12373H142.963V67.9769H126.237Z" fill="#212121"/>
<path d="M151.766 15.1653C161.449 1.08211 180.229 8.71052 186.978 13.4049L183.932 20.0368C176.889 17.3962 178.289 17.8668 172.488 15.6358C166.686 13.4048 157.928 23.9672 168.492 29.2483C179.055 34.5294 194.902 33.9781 188.739 54.7739C181.697 78.5391 149.125 65.3363 149.125 65.3363C149.125 65.3363 150.005 56.5343 150.005 53.8937C157.048 58.2947 164.971 64.4561 172.013 57.4145C179.056 50.373 170.252 45.972 161.449 43.3314C152.646 40.6908 142.082 29.2484 151.766 15.1653Z" fill="#212121"/>
<path d="M194.021 67.0966V8.12363H208.987V67.0966H194.021Z" fill="#212121"/>
<path d="M276.771 39.8106C274.659 4.60286 250.068 -1.2651 238.037 0.201887C242.732 3.72263 253.883 9.00372 259.165 26.6076C262.686 45.9719 256.524 66.2163 238.918 60.055C226.593 53.8936 229.234 23.0868 241.559 15.1651C241.559 10.7641 237.157 9.00372 231.875 9.00372C213.388 12.5245 210.747 34.5293 216.029 53.8936C220.431 73.2579 276.771 82.0598 276.771 39.8106Z" fill="#212121"/>
<path d="M279.412 67.0966V8.12363H293.497L322.548 46.8521V8.12363H331.351V67.0966H318.146L287.335 28.368V67.0966H279.412Z" fill="#212121"/>
</svg>
