<svg version="1.1" id="Layer_1" xmlns="http://www.w3.org/2000/svg" xmlns:xlink="http://www.w3.org/1999/xlink" x="0px" y="0px"
	 width="100%" viewBox="0 0 583 582" enable-background="new 0 0 583 582" xml:space="preserve">
<path fill="#010000" opacity="1.000000" stroke="none" 
	d="
M584.000000,258.000000 
	C584.000000,270.687561 584.000000,283.375122 583.639465,296.554108 
	C581.559387,295.816528 579.617615,294.807129 578.153931,293.325409 
	C558.468079,273.396271 538.905701,253.344925 519.194031,233.441483 
	C504.927673,219.036331 490.448669,204.841949 476.145264,190.473190 
	C472.314362,186.624786 468.779236,182.481979 465.545258,178.951355 
	C442.721619,201.307098 420.375031,223.195618 397.816162,245.130249 
	C397.513428,245.288986 397.422943,245.401611 397.332458,245.514221 
	C397.556732,245.656448 397.781006,245.798676 398.157440,246.079544 
	C398.309631,246.218185 398.671265,246.415054 398.827332,246.707047 
	C404.050476,252.433289 408.984497,257.999298 414.210724,263.275909 
	C427.409302,276.601837 440.720581,289.816376 454.022369,303.039673 
	C465.447083,314.397003 476.921143,325.704681 488.371765,337.500793 
	C488.324432,388.013062 488.278717,438.058868 487.757019,488.159912 
	C486.282227,488.232452 485.283386,488.264954 484.284546,488.264984 
	C356.235626,488.267548 228.186707,488.268311 100.137794,488.261871 
	C98.641144,488.261810 97.144493,488.168243 95.607971,487.643280 
	C95.542809,436.797516 95.517517,386.426758 95.804688,335.877991 
	C115.308884,316.527130 134.542313,297.395752 153.675903,278.165070 
	C164.227478,267.559906 174.611374,256.787903 185.042175,245.784576 
	C184.682388,245.277237 184.351288,245.076462 184.079315,244.923889 
	C184.138443,244.972076 184.233429,244.852676 184.137878,244.525803 
	C162.071487,222.704269 140.100647,201.209625 117.011833,178.621231 
	C116.180397,179.775146 115.053429,181.877502 113.441513,183.497269 
	C77.529884,219.583527 41.571613,255.623383 5.582876,291.632751 
	C4.258290,292.958099 2.536620,293.886566 1.000000,295.000000 
	C1.000000,282.645782 1.000000,270.291534 1.251890,257.440491 
	C1.735941,256.707275 1.968102,256.470886 2.386988,256.079712 
	C2.811911,255.703049 3.016395,255.453491 3.489202,255.033340 
	C5.010529,253.760468 6.270214,252.670853 7.443228,251.494797 
	C43.070004,215.775818 78.728073,180.087799 114.242981,144.257889 
	C117.606743,140.864304 119.737083,140.651581 123.079376,144.206100 
	C131.857071,153.541199 140.912537,162.618240 149.958862,171.696945 
	C169.460419,191.268295 189.061234,210.740814 208.540833,230.333908 
	C213.667053,235.490005 218.498856,240.938812 223.194763,246.462433 
	C205.038239,264.782135 187.156006,282.895782 169.266495,301.002197 
	C153.825867,316.629974 138.376892,332.249512 122.639114,347.989136 
	C121.980431,348.995911 121.614235,349.886230 121.198914,351.128601 
	C121.171303,351.716583 121.192818,351.952545 121.221352,352.645325 
	C121.231407,362.425537 121.213577,371.749084 121.241646,381.072479 
	C121.308807,403.377350 121.397575,425.682190 121.399750,448.434265 
	C121.811760,452.499176 122.301636,456.116882 123.266670,459.822327 
	C143.566086,459.986359 163.390335,460.116669 183.214600,460.117157 
	C193.871017,460.117401 204.527451,459.894806 215.519073,459.618622 
	C216.158569,458.222443 216.726776,456.980682 216.727936,455.738373 
	C216.749039,433.167328 216.701950,410.596283 216.960739,387.833984 
	C224.321945,380.641846 231.337296,373.584198 238.513062,366.693665 
	C239.768250,365.488403 241.697968,364.985504 243.298920,364.616425 
	C243.275055,394.840363 243.241959,424.606201 243.327362,454.371704 
	C243.332504,456.164154 244.282593,457.953918 245.267944,459.833405 
	C275.342773,459.975372 304.942627,460.032257 334.542511,460.064606 
	C335.358276,460.065491 336.174347,459.802368 337.419556,459.399414 
	C338.181030,456.889893 338.797607,454.643890 338.802460,452.396576 
	C338.867401,422.253113 338.846954,392.109497 339.184631,362.053864 
	C342.762695,365.216766 345.999054,368.296814 349.246124,371.365509 
	C354.765564,376.581573 360.291748,381.790527 365.839020,387.470398 
	C365.882629,411.663147 365.902283,435.388000 366.252960,459.379028 
	C367.895813,459.811066 369.207520,460.120422 370.519531,460.121735 
	C399.123627,460.149902 427.727753,460.158356 456.331787,460.105591 
	C457.933319,460.102631 459.533813,459.540222 461.183228,458.754791 
	C461.257568,431.322205 461.309387,404.373016 461.294983,377.423828 
	C461.290070,368.280945 461.118011,359.138153 461.039429,349.642456 
	C459.104218,347.056915 457.280029,344.695038 455.179352,342.611938 
	C438.098785,325.674530 420.924805,308.831177 403.864349,291.873596 
	C392.206360,280.285950 380.620880,268.623444 369.139435,256.861237 
	C365.497314,253.129974 362.294983,248.969421 359.207611,244.879120 
	C380.970581,223.589355 402.495728,202.504440 423.833679,181.231720 
	C435.968292,169.134232 447.783356,156.716583 459.769531,144.469711 
	C464.676300,139.456177 464.729401,139.467667 469.783569,144.533920 
	C506.852356,181.691574 543.912292,218.858063 581.162903,256.268066 
	C582.233826,257.009552 583.116943,257.504761 584.000000,258.000000 
z"/>
<path fill="#460E11" opacity="1.000000" stroke="none" 
	d="
M584.000000,579.000000 
	C584.000000,580.332397 584.000000,581.664734 584.000000,582.998535 
	C390.640839,583.000000 197.281677,583.000000 3.452165,582.647888 
	C4.521981,580.370056 5.917160,578.303772 7.626290,576.541992 
	C17.349688,566.519287 27.148039,556.569214 37.395500,546.601196 
	C202.935730,546.611877 368.001343,546.618042 533.066956,546.608276 
	C537.729370,546.608032 542.391846,546.437256 547.167480,546.423218 
	C547.280640,546.500366 547.543457,546.578186 547.714233,546.857117 
	C559.265564,558.400146 570.646179,569.664246 582.259644,580.773682 
	C582.614807,580.083313 582.737122,579.547485 583.143921,578.946533 
	C583.618896,578.920959 583.809448,578.960510 584.000000,579.000000 
z"/>
<path fill="#010000" opacity="1.000000" stroke="none" 
	d="
M183.000000,1.000000 
	C254.687561,1.000000 326.375122,1.000000 398.615814,1.363147 
	C399.216156,2.466514 399.263367,3.206733 399.213776,4.411388 
	C399.106140,26.586756 399.095306,48.297688 398.838867,70.225967 
	C397.562744,71.571373 396.532196,72.699432 395.232910,73.992401 
	C392.593353,76.623680 390.222534,79.090050 387.556824,81.717758 
	C386.371368,82.873009 385.480804,83.866928 384.310852,85.019226 
	C353.201416,115.943199 322.371338,146.708801 291.250916,177.764130 
	C287.629639,174.358047 284.266815,171.195038 280.766876,167.751923 
	C279.404266,166.363403 278.178802,165.255005 276.797791,163.847504 
	C274.046204,161.048325 271.450165,158.548233 268.732483,155.800110 
	C267.945007,154.922928 267.279205,154.293747 266.436584,153.368835 
	C263.148651,150.057404 260.037506,147.041672 256.799194,143.750488 
	C255.768509,142.689056 254.865005,141.903107 253.798523,140.823624 
	C251.079529,138.023788 248.523483,135.517471 245.854034,132.752228 
	C245.034088,131.880692 244.327545,131.268066 243.444901,130.359238 
	C239.949722,126.824814 236.630630,123.586609 233.261230,120.191498 
	C233.093262,119.834373 232.922562,119.703156 232.515594,119.346085 
	C224.661209,111.446182 216.990067,103.841156 209.274292,96.096039 
	C209.116211,95.777718 208.954529,95.676659 208.561279,95.355179 
	C205.270782,92.031418 202.163635,89.005257 198.924286,85.695145 
	C197.872528,84.578384 196.952972,83.745575 195.882889,82.617958 
	C192.658951,79.292427 189.585526,76.261703 186.343323,72.976379 
	C185.094086,71.484093 184.013611,70.246414 183.009949,68.544907 
	C183.057846,45.720715 183.028915,23.360357 183.000000,1.000000 
M356.805634,70.152321 
	C346.034546,59.288769 335.323853,48.363823 324.415619,37.639771 
	C323.060333,36.307388 320.662720,35.398865 318.738037,35.381058 
	C300.609863,35.213333 282.479095,35.229328 264.350372,35.363693 
	C262.535736,35.377148 260.221527,36.011154 258.998627,37.223839 
	C247.787033,48.341599 236.765488,59.651009 225.168488,71.274513 
	C225.085861,71.873848 225.003250,72.473183 225.072464,73.736092 
	C246.976456,95.626411 268.880432,117.516731 290.794159,139.416763 
	C292.236176,138.341888 292.963074,137.925140 293.536743,137.354385 
	C314.147034,116.848740 334.746735,96.332382 355.325226,75.794846 
	C356.012543,75.108910 356.465973,74.188660 357.540680,72.950417 
	C357.404175,72.206299 357.267670,71.462181 356.805634,70.152321 
z"/>
<path fill="#9D1E26" opacity="1.000000" stroke="none" 
	d="
M36.920891,546.594482 
	C27.148039,556.569214 17.349688,566.519287 7.626290,576.541992 
	C5.917160,578.303772 4.521981,580.370056 2.990908,582.647888 
	C2.333328,582.668213 1.216177,582.455261 1.090953,581.980591 
	C0.803653,580.891541 1.000000,579.674805 1.000000,578.509949 
	C1.000000,485.319061 1.000000,392.128204 1.373434,298.531006 
	C3.475926,298.670441 5.239044,299.127533 6.928421,299.776550 
	C16.621517,303.500519 26.297125,307.270020 36.100052,311.418396 
	C36.476398,313.954376 36.953701,316.096008 36.954170,318.237732 
	C36.970760,394.356659 36.942696,470.475555 36.920891,546.594482 
z"/>
<path fill="#010000" opacity="1.000000" stroke="none" 
	d="
M494.000000,1.000001 
	C523.937988,1.000000 553.875916,1.000000 584.000000,1.000000 
	C584.000000,41.354038 584.000000,81.708359 583.743103,122.544067 
	C583.314758,123.024422 583.143250,123.023384 582.775085,122.838745 
	C582.011780,122.222481 581.445251,121.789825 580.697571,121.069290 
	C569.266174,109.547386 558.015808,98.313354 546.636780,86.815903 
	C545.649780,85.767174 544.791443,84.981880 543.750366,83.912247 
	C540.076416,80.100754 536.408081,76.728165 533.150696,72.996918 
	C530.611206,70.088066 527.718323,69.261086 523.985657,69.285606 
	C514.075806,69.350731 504.163544,69.050377 494.291870,68.434601 
	C494.234344,46.643433 494.137207,25.313057 494.111359,3.613079 
	C494.121796,2.495651 494.060883,1.747826 494.000000,1.000001 
z"/>
<path fill="#010000" opacity="1.000000" stroke="none" 
	d="
M1.000001,121.000000 
	C1.000000,81.084702 1.000000,41.169411 1.000000,1.000000 
	C29.687061,1.000000 58.374870,1.000000 87.534241,1.374755 
	C88.013329,2.491753 88.020859,3.233994 87.937256,4.439898 
	C87.877785,25.605690 87.909447,46.307819 87.842697,67.324196 
	C87.554535,68.267059 87.364799,68.895668 86.698189,69.470627 
	C80.412277,69.397812 74.600685,69.264458 68.794991,69.394531 
	C63.875290,69.504753 58.962418,69.919540 53.750191,70.337677 
	C37.477028,86.461067 21.520786,102.467087 5.481319,118.389252 
	C4.293835,119.568054 2.507785,120.143867 1.000001,121.000000 
z"/>
<path fill="#AB252E" opacity="1.000000" stroke="none" 
	d="
M398.028442,245.084152 
	C420.375031,223.195618 442.721619,201.307098 465.545258,178.951355 
	C468.779236,182.481979 472.314362,186.624786 476.145264,190.473190 
	C490.448669,204.841949 504.927673,219.036331 519.194031,233.441483 
	C538.905701,253.344925 558.468079,273.396271 578.153931,293.325409 
	C579.617615,294.807129 581.559387,295.816528 583.639465,297.022766 
	C584.000000,298.714355 584.000000,300.428711 583.786133,302.355469 
	C582.714111,301.716522 581.855957,300.865173 580.639771,300.104584 
	C569.521912,304.462341 558.762207,308.729340 547.751465,312.779327 
	C544.488708,309.696655 541.401367,306.905914 538.477234,303.953461 
	C515.770447,281.026733 493.092529,258.071503 470.412689,235.118195 
	C466.127136,230.780960 463.303497,230.665604 459.031189,235.051315 
	C455.553680,238.621063 452.299408,242.408234 448.480896,246.092560 
	C431.567505,246.195770 415.119385,246.305405 398.671265,246.415054 
	C398.671265,246.415054 398.309631,246.218185 398.163849,245.865448 
	C398.018066,245.512695 398.028442,245.084167 398.028442,245.084152 
z"/>
<path fill="#AB252E" opacity="1.000000" stroke="none" 
	d="
M35.978664,311.024078 
	C26.297125,307.270020 16.621517,303.500519 6.928421,299.776550 
	C5.239044,299.127533 3.475926,298.670441 1.373434,298.062378 
	C1.000000,297.250000 1.000000,296.500000 1.000000,295.375000 
	C2.536620,293.886566 4.258290,292.958099 5.582876,291.632751 
	C41.571613,255.623383 77.529884,219.583527 113.441513,183.497269 
	C115.053429,181.877502 116.180397,179.775146 117.011833,178.621231 
	C140.100647,201.209625 162.071487,222.704269 183.735016,244.736664 
	C181.455002,245.532455 179.483582,246.002838 177.509415,246.014709 
	C163.027817,246.101883 148.545700,246.097260 133.860413,245.845642 
	C130.597107,242.290741 127.604240,238.945831 124.461983,235.747696 
	C119.274864,230.468338 118.020752,230.480255 112.762810,235.747833 
	C88.926361,259.627960 65.123016,283.541168 41.246166,307.380768 
	C39.759644,308.864960 37.746693,309.821869 35.978664,311.024078 
z"/>
<path fill="#9E1F27" opacity="1.000000" stroke="none" 
	d="
M584.000000,128.000000 
	C584.000000,168.687561 584.000000,209.375122 583.710693,250.730209 
	C582.817993,251.755692 582.214539,252.113647 581.393005,252.199341 
	C580.265747,250.166550 579.224426,248.460831 578.467834,246.636993 
	C571.290833,229.335251 564.253967,211.974808 556.982056,194.713257 
	C553.193359,185.720032 549.015076,176.890945 545.240906,167.688385 
	C545.974304,165.158630 546.817993,162.943115 546.917053,160.694794 
	C547.151428,155.374817 546.637085,149.994690 547.231018,144.729767 
	C547.506287,142.289490 549.116638,138.768616 551.054504,137.952499 
	C561.463379,133.568939 572.165771,129.882294 582.854248,126.196121 
	C583.294495,126.958153 583.647217,127.479080 584.000000,128.000000 
z"/>
<path fill="#9D1E26" opacity="1.000000" stroke="none" 
	d="
M3.187166,255.176315 
	C3.016395,255.453491 2.811911,255.703049 2.088773,256.010010 
	C1.402556,256.063385 1.201278,256.031708 1.000000,256.000000 
	C1.000000,212.645767 1.000000,169.291550 1.361548,125.516205 
	C3.149184,125.395355 4.575272,125.695610 6.296848,126.168793 
	C8.729106,127.220764 10.865875,128.099808 13.351664,129.088318 
	C21.131824,132.134186 28.562965,135.070572 36.113628,138.403534 
	C36.494308,145.694748 36.527699,152.609558 37.135036,159.473572 
	C37.360268,162.019089 38.932304,164.445435 39.712387,167.215057 
	C38.219574,169.795670 36.637817,171.976364 35.630630,174.396194 
	C25.359114,199.074310 15.160961,223.783096 5.012833,248.512253 
	C4.144927,250.627167 3.783742,252.950043 3.187166,255.176315 
z"/>
<path fill="#AD2831" opacity="1.000000" stroke="none" 
	d="
M88.028389,3.976236 
	C88.020859,3.233994 88.013329,2.491753 88.002899,1.374755 
	C114.687561,1.000000 141.375122,1.000000 168.893448,1.187817 
	C173.354523,1.885361 176.984833,2.395088 181.105042,2.973603 
	C169.661819,14.745906 158.839783,25.879158 147.607880,37.100410 
	C139.462372,37.459713 131.726730,37.731014 123.726501,37.802452 
	C113.745590,28.003281 104.064735,18.367556 94.281967,8.836436 
	C92.402786,7.005601 90.123238,5.585709 88.028389,3.976236 
z"/>
<path fill="#AD2831" opacity="1.000000" stroke="none" 
	d="
M493.531311,1.000001 
	C494.060883,1.747826 494.121796,2.495651 493.794342,3.743280 
	C491.365570,5.895815 489.182983,7.402452 487.308624,9.225905 
	C477.833740,18.443401 468.438995,27.743322 458.607300,37.103134 
	C450.468628,37.457600 442.738770,37.723278 434.742126,37.788464 
	C429.363220,32.363468 424.392792,26.990179 419.102783,21.952511 
	C412.645630,15.803388 405.920074,9.936119 399.310577,3.946950 
	C399.263367,3.206733 399.216156,2.466514 399.084473,1.363147 
	C430.354218,1.000000 461.708466,1.000000 493.531311,1.000001 
z"/>
<path fill="#AB252E" opacity="1.000000" stroke="none" 
	d="
M35.994106,138.006973 
	C28.562965,135.070572 21.131824,132.134186 13.191162,128.802429 
	C10.454879,127.603348 8.228120,126.799599 6.001360,125.995865 
	C4.575272,125.695610 3.149184,125.395355 1.361548,125.047546 
	C1.000000,123.933327 1.000000,122.866661 1.000001,121.399994 
	C2.507785,120.143867 4.293835,119.568054 5.481319,118.389252 
	C21.520786,102.467087 37.477028,86.461067 53.877865,70.649551 
	C56.226742,74.838982 58.256851,78.808220 60.053844,82.880341 
	C63.440369,90.554436 66.692574,98.287819 69.692986,106.151512 
	C67.650536,107.547966 65.719307,108.588852 64.212921,110.063675 
	C54.754025,119.324348 45.389706,128.681641 35.994106,138.006973 
z"/>
<path fill="#9E1F27" opacity="1.000000" stroke="none" 
	d="
M148.017746,37.012409 
	C158.839783,25.879158 169.661819,14.745906 181.105042,2.973603 
	C176.984833,2.395088 173.354523,1.885361 169.362106,1.187817 
	C173.356903,1.000000 177.713806,1.000000 182.535355,1.000000 
	C183.028915,23.360357 183.057846,45.720715 182.545639,68.545517 
	C172.343201,68.995323 162.681900,68.980621 153.020584,68.966072 
	C149.883133,68.961349 147.108932,68.163155 147.169907,64.407745 
	C147.318237,55.273785 147.718796,46.143925 148.017746,37.012409 
z"/>
<path fill="#9D1E26" opacity="1.000000" stroke="none" 
	d="
M580.997803,300.013824 
	C581.855957,300.865173 582.714111,301.716522 583.786133,302.783936 
	C584.000000,394.687561 584.000000,486.375122 584.000000,578.531372 
	C583.809448,578.960510 583.618896,578.920959 583.031982,579.182861 
	C582.432678,579.965637 582.229736,580.446960 582.026855,580.928284 
	C570.646179,569.664246 559.265564,558.400146 547.997559,546.635498 
	C550.955872,543.784180 552.990906,545.501099 554.983276,547.493958 
	C561.337463,553.849854 567.668640,560.229309 574.078613,566.528503 
	C575.379272,567.806702 576.985107,568.774292 579.572510,570.735962 
	C579.757324,566.544922 579.983826,563.795715 579.984436,561.046509 
	C580.003479,477.663300 579.987671,394.280090 580.042664,310.896912 
	C580.045044,307.269012 580.665344,303.641510 580.997803,300.013824 
z"/>
<path fill="#AA222B" opacity="1.000000" stroke="none" 
	d="
M581.611084,252.471619 
	C582.214539,252.113647 582.817993,251.755692 583.710693,251.198868 
	C584.000000,252.066666 584.000000,253.133347 583.636841,254.569336 
	C582.805603,255.068390 582.337402,255.198120 581.841675,254.967316 
	C581.746399,253.895081 581.678711,253.183350 581.611084,252.471619 
z"/>
<path fill="#460E11" opacity="1.000000" stroke="none" 
	d="
M584.000000,127.583336 
	C583.647217,127.479080 583.294495,126.958153 582.906128,125.913490 
	C582.904297,124.600616 582.938049,123.811485 582.971802,123.022354 
	C583.143250,123.023384 583.314758,123.024422 583.743103,123.012726 
	C584.000000,124.388893 584.000000,125.777779 584.000000,127.583336 
z"/>
<path fill="#460E11" opacity="1.000000" stroke="none" 
	d="
M581.869263,255.327820 
	C582.337402,255.198120 582.805603,255.068390 583.636841,254.969330 
	C584.000000,255.750000 584.000000,256.500000 584.000000,257.625000 
	C583.116943,257.504761 582.233826,257.009552 581.315796,256.156738 
	C581.491638,255.660385 581.687805,255.503265 581.869263,255.327820 
z"/>
<path fill="#601318" opacity="1.000000" stroke="none" 
	d="
M1.000000,256.250000 
	C1.201278,256.031708 1.402556,256.063385 1.902048,256.164764 
	C1.968102,256.470886 1.735941,256.707275 1.251890,256.971863 
	C1.000000,257.000000 1.000000,256.500000 1.000000,256.250000 
z"/>
<path fill="#AD2831" opacity="1.000000" stroke="none" 
	d="
M95.647842,488.118317 
	C97.144493,488.168243 98.641144,488.261810 100.137794,488.261871 
	C228.186707,488.268311 356.235626,488.267548 484.284546,488.264984 
	C485.283386,488.264954 486.282227,488.232452 487.957001,488.196960 
	C488.632935,488.178802 489.037659,488.218506 489.239258,488.456238 
	C495.407898,494.743378 501.375092,500.792603 507.341949,506.842163 
	C512.898193,512.475525 512.771790,514.379395 506.362183,518.834290 
	C505.012695,519.772156 503.496857,520.756165 501.931976,521.050415 
	C494.279266,522.489380 486.586395,524.812134 478.903503,524.828308 
	C364.423401,525.069458 249.942673,524.995361 135.462097,524.994629 
	C124.130699,524.994568 112.714561,525.831665 101.495728,524.705872 
	C93.092148,523.862610 84.525108,521.418579 76.806396,517.957581 
	C70.107986,514.954163 70.412903,512.253235 75.541344,506.973206 
	C81.687225,500.645660 87.857224,494.341492 94.288254,488.049561 
	C94.922432,488.087372 95.285133,488.102844 95.647842,488.118317 
z"/>
<path fill="#601217" opacity="1.000000" stroke="none" 
	d="
M581.841675,254.967316 
	C581.687805,255.503265 581.491638,255.660385 581.127930,255.910461 
	C543.912292,218.858063 506.852356,181.691574 469.783569,144.533920 
	C464.729401,139.467667 464.676300,139.456177 459.769531,144.469711 
	C447.783356,156.716583 435.968292,169.134232 423.833679,181.231720 
	C402.495728,202.504440 380.970581,223.589355 358.847534,244.903732 
	C357.449768,245.039902 356.728271,245.025253 355.821716,244.905212 
	C355.636658,244.799835 355.243927,244.635437 355.078766,244.399826 
	C354.284302,243.421661 353.654999,242.679108 352.888062,241.631287 
	C346.234924,234.354904 339.719391,227.383774 333.298584,220.077332 
	C334.469757,218.490570 335.471161,217.164139 336.634186,215.999054 
	C351.304565,201.302612 366.021057,186.652145 380.680481,171.944748 
	C400.491241,152.069168 420.262726,132.154419 440.129852,112.579498 
	C440.916443,114.182144 441.379211,115.706146 442.372009,116.701431 
	C448.520447,122.865173 454.787964,128.910080 461.209229,135.219238 
	C463.477295,137.893967 465.320435,137.274231 467.347900,134.882584 
	C474.763672,127.521019 481.871735,120.295570 489.281830,113.209839 
	C492.363708,115.970268 495.200989,118.533051 497.913971,121.221252 
	C513.629761,136.793701 529.316284,152.395706 545.012695,167.987701 
	C549.015076,176.890945 553.193359,185.720032 556.982056,194.713257 
	C564.253967,211.974808 571.290833,229.335251 578.467834,246.636993 
	C579.224426,248.460831 580.265747,250.166550 581.393005,252.199341 
	C581.678711,253.183350 581.746399,253.895081 581.841675,254.967316 
z"/>
<path fill="#601318" opacity="1.000000" stroke="none" 
	d="
M3.489202,255.033340 
	C3.783742,252.950043 4.144927,250.627167 5.012833,248.512253 
	C15.160961,223.783096 25.359114,199.074310 35.630630,174.396194 
	C36.637817,171.976364 38.219574,169.795670 39.983696,167.019974 
	C47.939190,159.042557 55.420670,151.523972 62.958122,144.061905 
	C73.201767,133.920715 83.488197,123.822754 93.978165,113.994278 
	C101.448799,121.196205 108.697563,128.110107 116.134575,135.250412 
	C117.888336,135.654694 119.453857,135.832581 121.329163,135.875488 
	C127.801430,129.937744 134.039200,124.211388 140.068130,118.273026 
	C141.408417,116.952881 142.012985,114.885803 143.239777,113.327042 
	C145.589294,115.420319 147.730881,117.275063 149.708328,119.290833 
	C158.564560,128.318726 167.317383,137.448532 176.212753,146.437439 
	C192.481659,162.877380 208.824844,179.243790 225.256439,195.958252 
	C226.319458,197.157578 227.263077,198.039551 228.489319,199.083450 
	C235.584930,206.059174 242.397919,212.872971 249.054413,220.024414 
	C245.736176,223.937515 242.570953,227.509888 239.413666,231.089249 
	C235.933136,235.035049 232.459900,238.987244 228.733063,243.100494 
	C227.603165,244.028854 226.723694,244.793381 225.828156,245.611023 
	C225.812088,245.664139 225.833344,245.773071 225.533264,245.811066 
	C224.644089,245.983780 224.054977,246.118500 223.465866,246.253204 
	C218.498856,240.938812 213.667053,235.490005 208.540833,230.333908 
	C189.061234,210.740814 169.460419,191.268295 149.958862,171.696945 
	C140.912537,162.618240 131.857071,153.541199 123.079376,144.206100 
	C119.737083,140.651581 117.606743,140.864304 114.242981,144.257889 
	C78.728073,180.087799 43.070004,215.775818 7.443228,251.494797 
	C6.270214,252.670853 5.010529,253.760468 3.489202,255.033340 
z"/>
<path fill="#9F1F27" opacity="1.000000" stroke="none" 
	d="
M95.607971,487.643280 
	C95.285133,488.102844 94.922432,488.087372 93.817940,488.043518 
	C84.263824,488.007385 75.451225,488.039673 66.639259,487.978821 
	C59.946766,487.932617 59.025917,487.088440 59.025101,480.550232 
	C59.019108,432.664551 59.060566,384.778839 59.546841,336.906769 
	C70.998039,336.633484 81.989449,336.346619 93.295181,336.079468 
	C94.237076,336.084808 94.864647,336.070404 95.492226,336.056030 
	C95.517517,386.426758 95.542809,436.797516 95.607971,487.643280 
z"/>
<path fill="#9F1F27" opacity="1.000000" stroke="none" 
	d="
M489.037659,488.218506 
	C489.037659,488.218506 488.632935,488.178802 488.432983,488.141754 
	C488.278717,438.058868 488.324432,388.013062 488.694305,337.514404 
	C489.662445,337.015350 490.306458,336.969116 491.341248,337.073120 
	C502.480896,337.481110 513.229797,337.738861 524.116028,338.385406 
	C524.500549,341.582428 524.960022,344.390472 524.963013,347.198944 
	C525.008789,390.030090 524.996094,432.861237 524.990295,475.692413 
	C524.990051,477.524902 524.944702,479.358063 524.883484,481.189697 
	C524.753845,485.067505 522.692810,486.935974 518.852173,486.944153 
	C511.519501,486.959717 504.184357,486.883087 496.855469,487.060944 
	C494.241730,487.124420 491.643158,487.814453 489.037659,488.218506 
z"/>
<path fill="#AB252E" opacity="1.000000" stroke="none" 
	d="
M356.006775,245.010590 
	C356.728271,245.025253 357.449768,245.039902 358.531311,245.029938 
	C362.294983,248.969421 365.497314,253.129974 369.139435,256.861237 
	C380.620880,268.623444 392.206360,280.285950 403.864349,291.873596 
	C420.924805,308.831177 438.098785,325.674530 455.179352,342.611938 
	C457.280029,344.695038 459.104218,347.056915 460.732605,349.728760 
	C459.606171,350.446503 458.803680,350.725067 457.667786,351.129150 
	C447.224121,355.170288 437.113922,359.085938 426.695618,362.847229 
	C423.219299,360.077942 419.946869,357.577209 416.914734,354.812927 
	C414.343109,352.468445 412.099213,349.768951 409.623352,347.314240 
	C400.547607,338.316132 391.381989,329.408203 382.349640,320.366943 
	C367.915680,305.918701 353.725739,291.221588 339.074768,276.998291 
	C334.565063,272.620239 333.833252,267.859436 334.049530,264.108002 
	C338.213684,261.324982 341.276550,259.456268 344.136108,257.315979 
	C346.926147,255.227753 349.663635,253.017639 352.125946,250.561981 
	C353.699707,248.992416 354.731812,246.879761 356.006775,245.010590 
z"/>
<path fill="#AB252E" opacity="1.000000" stroke="none" 
	d="
M223.194763,246.462433 
	C224.054977,246.118500 224.644089,245.983780 225.686493,246.140625 
	C227.543610,248.044220 228.824707,249.786728 230.373917,251.244247 
	C235.342361,255.918564 240.538467,260.357483 245.387039,265.149933 
	C247.942947,267.676239 249.956589,270.674011 246.394089,274.193054 
	C237.904007,282.579529 229.450058,291.003235 221.043488,299.473450 
	C210.494186,310.102631 199.995651,320.782288 189.496323,331.460907 
	C181.462204,339.632202 173.488419,347.863007 165.434357,356.014526 
	C160.808151,360.696747 155.988617,364.792938 148.920212,360.191620 
	C148.208710,359.728485 146.985809,360.050934 145.696716,359.916565 
	C144.596100,359.541962 143.799042,359.259552 142.801270,358.705872 
	C140.733490,357.623108 138.866440,356.811554 136.749664,355.994629 
	C136.499954,355.989227 136.000488,355.979431 135.773132,355.748810 
	C134.361160,355.013855 133.176575,354.509521 131.746674,353.997437 
	C131.501389,353.989655 131.010849,353.973083 130.802017,353.718536 
	C128.039322,351.600220 125.485451,349.736450 122.931595,347.872681 
	C138.376892,332.249512 153.825867,316.629974 169.266495,301.002197 
	C187.156006,282.895782 205.038239,264.782135 223.194763,246.462433 
z"/>
<path fill="#601217" opacity="1.000000" stroke="none" 
	d="
M490.950439,336.922913 
	C490.306458,336.969116 489.662445,337.015350 488.695923,337.047974 
	C476.921143,325.704681 465.447083,314.397003 454.022369,303.039673 
	C440.720581,289.816376 427.409302,276.601837 414.210724,263.275909 
	C408.984497,257.999298 404.050476,252.433289 398.827332,246.707047 
	C415.119385,246.305405 431.567505,246.195770 448.687531,246.348663 
	C459.072571,256.361969 468.816437,266.082336 478.490906,275.871338 
	C490.028290,287.545288 501.506226,299.277985 512.875244,311.298218 
	C509.085480,315.650574 505.409943,319.671631 501.781311,323.734558 
	C498.158539,327.790863 494.582672,331.889130 490.973724,336.207336 
	C490.961182,336.445679 490.950439,336.922913 490.950439,336.922913 
z"/>
<path fill="#5F1217" opacity="1.000000" stroke="none" 
	d="
M95.804688,335.877991 
	C94.864647,336.070404 94.237076,336.084808 93.103119,335.869659 
	C92.055473,335.109894 91.514198,334.579651 90.845764,333.731750 
	C89.187561,331.489624 87.786316,329.442261 86.101479,327.663513 
	C80.766197,322.030823 75.324898,316.498566 70.121567,310.660156 
	C71.582283,309.078674 72.827751,307.746246 74.112541,306.452942 
	C94.093262,286.339478 114.079094,266.231110 134.063736,246.121567 
	C148.545700,246.097260 163.027817,246.101883 177.509415,246.014709 
	C179.483582,246.002838 181.455002,245.532455 183.830566,245.063538 
	C184.233429,244.852676 184.138443,244.972076 184.208313,245.162292 
	C184.542419,245.598724 184.806641,245.844925 185.070862,246.091125 
	C174.611374,256.787903 164.227478,267.559906 153.675903,278.165070 
	C134.542313,297.395752 115.308884,316.527130 95.804688,335.877991 
z"/>
<path fill="#9E1F27" opacity="1.000000" stroke="none" 
	d="
M338.847748,361.965912 
	C338.846954,392.109497 338.867401,422.253113 338.802460,452.396576 
	C338.797607,454.643890 338.181030,456.889893 337.259369,459.013153 
	C325.098053,447.130829 313.526245,435.371887 301.959381,423.173706 
	C301.977631,404.947571 301.950317,387.160461 302.046265,369.373993 
	C302.061340,366.582001 302.635468,363.792999 303.424622,361.002136 
	C314.395721,360.883514 324.893311,360.765350 335.696594,360.702515 
	C336.950775,361.160522 337.899261,361.563232 338.847748,361.965912 
z"/>
<path fill="#9F1F27" opacity="1.000000" stroke="none" 
	d="
M121.477623,447.987030 
	C121.397575,425.682190 121.308807,403.377350 121.241646,381.072479 
	C121.213577,371.749084 121.231407,362.425537 121.459061,352.593140 
	C122.001884,351.992615 122.319992,351.932831 123.022263,351.968384 
	C125.268822,352.686340 127.137192,353.340790 128.761093,354.062988 
	C127.601952,354.346161 126.687271,354.561523 124.482559,355.080688 
	C131.565048,358.159790 137.465775,360.896881 143.527924,363.211060 
	C144.695023,363.656555 146.495224,362.443512 148.258789,362.108643 
	C149.010162,362.478210 149.506134,362.734711 150.106125,363.296692 
	C151.583466,366.289215 153.072556,367.645569 155.265488,364.257294 
	C156.353928,367.252747 157.847290,370.001434 157.879745,372.767303 
	C158.077972,389.657898 157.944534,406.552399 157.805084,423.542603 
	C157.688477,423.639618 157.399628,423.732239 157.203644,423.418579 
	C154.904633,419.758606 152.712921,420.809845 150.537003,423.000610 
	C144.441971,429.137146 138.574844,435.523071 132.181625,441.330414 
	C129.122360,444.109314 125.076591,445.802246 121.477623,447.987030 
z"/>
<path fill="#490E11" opacity="1.000000" stroke="none" 
	d="
M157.399628,423.732239 
	C157.399628,423.732239 157.688477,423.639618 158.248688,423.580505 
	C165.856979,423.549683 172.905075,423.577972 180.205139,423.850586 
	C188.574051,432.199768 196.741455,440.255005 204.785049,448.432037 
	C208.379486,452.086212 211.725250,455.985016 215.183868,459.772766 
	C204.527451,459.894806 193.871017,460.117401 183.214600,460.117157 
	C163.390335,460.116669 143.566086,459.986359 123.386459,459.511871 
	C124.685974,457.259216 126.268860,455.334137 128.007645,453.562042 
	C137.784225,443.598419 147.598312,433.671600 157.399628,423.732239 
z"/>
<path fill="#470E11" opacity="1.000000" stroke="none" 
	d="
M301.954407,423.612915 
	C313.526245,435.371887 325.098053,447.130829 336.830078,459.276062 
	C336.174347,459.802368 335.358276,460.065491 334.542511,460.064606 
	C304.942627,460.032257 275.342773,459.975372 245.392151,459.524780 
	C246.939728,457.041565 248.776550,454.895355 250.746826,452.879639 
	C260.276886,443.129700 269.842773,433.414825 279.518677,423.667633 
	C279.641357,423.647705 279.868225,423.538025 280.314758,423.574097 
	C287.825653,423.611084 294.890045,423.612000 301.954407,423.612915 
z"/>
<path fill="#460E11" opacity="1.000000" stroke="none" 
	d="
M461.134796,459.238190 
	C459.533813,459.540222 457.933319,460.102631 456.331787,460.105591 
	C427.727753,460.158356 399.123627,460.149902 370.519531,460.121735 
	C369.207520,460.120422 367.895813,459.811066 366.585602,459.273651 
	C378.381561,447.222076 390.175934,435.542084 402.437408,423.854828 
	C410.323853,423.793182 417.743164,423.738770 425.185181,423.710449 
	C425.207916,423.736542 425.272644,423.712067 425.453796,423.990845 
	C431.663818,430.478058 437.591858,436.788666 443.751099,442.864899 
	C449.416351,448.453735 455.330383,453.790405 461.134796,459.238190 
z"/>
<path fill="#9E1F27" opacity="1.000000" stroke="none" 
	d="
M215.519073,459.618622 
	C211.725250,455.985016 208.379486,452.086212 204.785049,448.432037 
	C196.741455,440.255005 188.574051,432.199768 180.210342,423.412323 
	C179.976746,418.580505 179.880020,414.427399 180.027527,410.282959 
	C180.280167,403.184235 180.685577,396.090942 181.492798,388.990295 
	C185.758362,388.981842 189.562515,389.096222 193.356583,388.949524 
	C200.252396,388.682831 207.142227,388.260986 214.363831,387.925934 
	C215.351852,387.973724 216.010605,387.999451 216.669357,388.025208 
	C216.701950,410.596283 216.749039,433.167328 216.727936,455.738373 
	C216.726776,456.980682 216.158569,458.222443 215.519073,459.618622 
z"/>
<path fill="#9D1E26" opacity="1.000000" stroke="none" 
	d="
M401.970276,423.862061 
	C390.175934,435.542084 378.381561,447.222076 366.254578,459.007477 
	C365.902283,435.388000 365.882629,411.663147 366.237854,387.516724 
	C367.414185,387.077667 368.215576,387.060181 369.403320,387.177734 
	C380.510498,387.523682 391.231323,387.734528 401.959839,388.417419 
	C401.968475,400.546997 401.969360,412.204529 401.970276,423.862061 
z"/>
<path fill="#601318" opacity="1.000000" stroke="none" 
	d="
M369.016968,387.042725 
	C368.215576,387.060181 367.414185,387.077667 366.213928,387.048828 
	C360.291748,381.790527 354.765564,376.581573 349.246124,371.365509 
	C345.999054,368.296814 342.762695,365.216766 339.184631,362.053864 
	C337.899261,361.563232 336.950775,361.160522 335.628204,360.432068 
	C335.167908,359.739838 335.081665,359.373322 335.005249,358.748932 
	C335.020813,358.319061 335.026550,358.147125 335.362244,357.978210 
	C336.132568,357.983521 336.572968,357.985779 337.291595,358.047638 
	C339.049988,357.406860 340.530090,356.706482 342.321411,355.872559 
	C344.668182,354.080261 346.800690,352.525757 348.720886,350.742615 
	C354.039764,345.803192 359.270111,340.768463 364.825134,335.909271 
	C373.761078,344.672058 382.407318,353.296936 390.914185,362.240112 
	C386.445618,367.278473 382.009125,371.906311 377.835907,376.760468 
	C375.956482,378.946533 374.602295,381.584167 372.760468,384.206360 
	C371.346405,385.278076 370.181702,386.160400 369.016968,387.042725 
z"/>
<path fill="#601318" opacity="1.000000" stroke="none" 
	d="
M216.960739,387.833954 
	C216.010605,387.999451 215.351852,387.973724 214.179001,387.715302 
	C213.113235,386.976685 212.561584,386.470795 211.875519,385.656250 
	C204.694366,378.184967 197.647644,371.022308 190.735809,363.537994 
	C200.214691,353.745392 209.558655,344.274384 219.045013,335.131348 
	C226.131271,342.637146 233.075150,349.814941 240.214813,357.222046 
	C242.593475,357.615540 244.776382,357.779694 246.968124,358.285461 
	C246.982605,359.081085 246.988220,359.535187 246.826569,360.167236 
	C246.433594,360.580505 246.220398,360.826660 245.753296,361.241577 
	C245.041168,362.275574 244.595490,363.151642 243.942917,364.070129 
	C243.736023,364.112488 243.316147,364.158234 243.316147,364.158234 
	C241.697968,364.985504 239.768250,365.488403 238.513062,366.693665 
	C231.337296,373.584198 224.321945,380.641846 216.960739,387.833954 
z"/>
<path fill="#9E1F27" opacity="1.000000" stroke="none" 
	d="
M243.298920,364.616425 
	C243.316147,364.158234 243.736023,364.112488 244.298920,364.064697 
	C245.574539,364.012054 246.287262,364.007263 247.056442,364.350525 
	C246.742401,369.322083 246.118530,373.941956 246.052078,378.569794 
	C245.894272,389.562012 245.994659,400.558044 246.001724,411.552521 
	C246.008057,421.380798 245.962906,431.210052 246.113403,441.036255 
	C246.136612,442.551117 247.088516,444.051727 247.610916,445.558899 
	C249.027405,444.913330 250.765213,444.594604 251.808365,443.569214 
	C258.696686,436.798340 265.511322,429.947998 272.193390,422.973541 
	C275.876434,419.129333 276.239166,419.045685 279.395966,423.687561 
	C269.842773,433.414825 260.276886,443.129700 250.746826,452.879639 
	C248.776550,454.895355 246.939728,457.041565 244.917206,459.436279 
	C244.282593,457.953918 243.332504,456.164154 243.327362,454.371704 
	C243.241959,424.606201 243.275055,394.840363 243.298920,364.616425 
z"/>
<path fill="#9D1E26" opacity="1.000000" stroke="none" 
	d="
M461.183228,458.754791 
	C455.330383,453.790405 449.416351,448.453735 443.751099,442.864899 
	C437.591858,436.788666 431.663818,430.478058 425.816986,423.807373 
	C428.327667,424.063232 431.250977,424.129547 432.879639,425.615173 
	C439.145721,431.330872 444.936493,437.564117 451.047913,443.455597 
	C452.505219,444.860443 454.517242,445.689941 456.274109,446.784088 
	C456.847595,444.655914 457.560791,442.552643 457.945679,440.390900 
	C458.204285,438.938354 457.999756,437.403107 457.999786,435.904846 
	C458.000488,407.604462 458.000793,379.304047 458.001221,351.003662 
	C458.803680,350.725067 459.606171,350.446503 460.715515,350.081604 
	C461.118011,359.138153 461.290070,368.280945 461.294983,377.423828 
	C461.309387,404.373016 461.257568,431.322205 461.183228,458.754791 
z"/>
<path fill="#9E1F27" opacity="1.000000" stroke="none" 
	d="
M157.203644,423.418579 
	C147.598312,433.671600 137.784225,443.598419 128.007645,453.562042 
	C126.268860,455.334137 124.685974,457.259216 122.911308,459.424103 
	C122.301636,456.116882 121.811760,452.499176 121.399750,448.434265 
	C125.076591,445.802246 129.122360,444.109314 132.181625,441.330414 
	C138.574844,435.523071 144.441971,429.137146 150.537003,423.000610 
	C152.712921,420.809845 154.904633,419.758606 157.203644,423.418579 
z"/>
<path fill="#AA222B" opacity="1.000000" stroke="none" 
	d="
M129.005554,353.995239 
	C127.137192,353.340790 125.268822,352.686340 122.882202,351.790741 
	C121.991974,351.291901 121.620003,351.034241 121.248032,350.776581 
	C121.614235,349.886230 121.980431,348.995911 122.639107,347.989136 
	C125.485451,349.736450 128.039322,351.600220 130.467636,353.723999 
	C129.896576,353.987793 129.451065,353.991516 129.005554,353.995239 
z"/>
<path fill="#490E11" opacity="1.000000" stroke="none" 
	d="
M121.198906,351.128601 
	C121.620003,351.034241 121.991974,351.291901 122.504005,351.727234 
	C122.319992,351.932831 122.001884,351.992615 121.452042,352.136353 
	C121.192818,351.952545 121.171303,351.716583 121.198906,351.128601 
z"/>
<path fill="#A9212A" opacity="1.000000" stroke="none" 
	d="
M397.816162,245.130280 
	C398.028442,245.084167 398.018066,245.512695 398.011658,245.726807 
	C397.781006,245.798676 397.556732,245.656448 397.332458,245.514221 
	C397.422943,245.401611 397.513428,245.288986 397.816162,245.130280 
z"/>
<path fill="#A9212A" opacity="1.000000" stroke="none" 
	d="
M185.042175,245.784576 
	C184.806641,245.844925 184.542419,245.598724 184.149170,245.114105 
	C184.351288,245.076462 184.682388,245.277237 185.042175,245.784576 
z"/>
<path fill="#A9212A" opacity="1.000000" stroke="none" 
	d="
M133.860413,245.845642 
	C114.079094,266.231110 94.093262,286.339478 74.112541,306.452942 
	C72.827751,307.746246 71.582283,309.078674 69.869583,310.874481 
	C67.529099,313.854065 65.637566,316.352081 63.516975,319.124084 
	C61.887638,325.229767 60.487347,331.061462 59.087059,336.893158 
	C59.060566,384.778839 59.019108,432.664551 59.025101,480.550232 
	C59.025917,487.088440 59.946766,487.932617 66.639259,487.978821 
	C75.451225,488.039673 84.263824,488.007385 93.546463,488.021179 
	C87.857224,494.341492 81.687225,500.645660 75.541344,506.973206 
	C70.412903,512.253235 70.107986,514.954163 76.806396,517.957581 
	C84.525108,521.418579 93.092148,523.862610 101.495728,524.705872 
	C112.714561,525.831665 124.130699,524.994568 135.462097,524.994629 
	C249.942673,524.995361 364.423401,525.069458 478.903503,524.828308 
	C486.586395,524.812134 494.279266,522.489380 501.931976,521.050415 
	C503.496857,520.756165 505.012695,519.772156 506.362183,518.834290 
	C512.771790,514.379395 512.898193,512.475525 507.341949,506.842163 
	C501.375092,500.792603 495.407898,494.743378 489.239258,488.456238 
	C491.643158,487.814453 494.241730,487.124420 496.855469,487.060944 
	C504.184357,486.883087 511.519501,486.959717 518.852173,486.944153 
	C522.692810,486.935974 524.753845,485.067505 524.883484,481.189697 
	C524.944702,479.358063 524.990051,477.524902 524.990295,475.692413 
	C524.996094,432.861237 525.008789,390.030090 524.963013,347.198944 
	C524.960022,344.390472 524.500549,341.582428 524.107483,337.969238 
	C522.739136,332.091583 521.516785,327.018951 520.198059,321.595734 
	C517.737793,317.825165 515.373901,314.405182 513.009949,310.985199 
	C501.506226,299.277985 490.028290,287.545288 478.490906,275.871338 
	C468.816437,266.082336 459.072571,256.361969 449.152771,246.355103 
	C452.299408,242.408234 455.553680,238.621063 459.031189,235.051315 
	C463.303497,230.665604 466.127136,230.780960 470.412689,235.118195 
	C493.092529,258.071503 515.770447,281.026733 538.477234,303.953461 
	C541.401367,306.905914 544.488708,309.696655 547.633057,313.177246 
	C547.512878,316.098999 547.039978,318.405762 547.039246,320.712616 
	C547.016235,395.923737 547.038635,471.134888 547.054260,546.346008 
	C542.391846,546.437256 537.729370,546.608032 533.066956,546.608276 
	C368.001343,546.618042 202.935730,546.611877 37.395500,546.601196 
	C36.942696,470.475555 36.970760,394.356659 36.954170,318.237732 
	C36.953701,316.096008 36.476398,313.954376 36.100052,311.418396 
	C37.746693,309.821869 39.759644,308.864960 41.246166,307.380768 
	C65.123016,283.541168 88.926361,259.627960 112.762810,235.747833 
	C118.020752,230.480255 119.274864,230.468338 124.461983,235.747696 
	C127.604240,238.945831 130.597107,242.290741 133.860413,245.845642 
z"/>
<path fill="#9F1F27" opacity="1.000000" stroke="none" 
	d="
M547.167480,546.423218 
	C547.038635,471.134888 547.016235,395.923737 547.039246,320.712616 
	C547.039978,318.405762 547.512878,316.098999 547.884033,313.394287 
	C558.762207,308.729340 569.521912,304.462341 580.639771,300.104584 
	C580.665344,303.641510 580.045044,307.269012 580.042664,310.896912 
	C579.987671,394.280090 580.003479,477.663300 579.984436,561.046509 
	C579.983826,563.795715 579.757324,566.544922 579.572510,570.735962 
	C576.985107,568.774292 575.379272,567.806702 574.078613,566.528503 
	C567.668640,560.229309 561.337463,553.849854 554.983276,547.493958 
	C552.990906,545.501099 550.955872,543.784180 547.826782,546.356567 
	C547.543457,546.578186 547.280640,546.500366 547.167480,546.423218 
z"/>
<path fill="#A9212A" opacity="1.000000" stroke="none" 
	d="
M582.259705,580.773682 
	C582.229736,580.446960 582.432678,579.965637 582.747498,579.247925 
	C582.737122,579.547485 582.614807,580.083313 582.259705,580.773682 
z"/>
<path fill="#AA222B" opacity="1.000000" stroke="none" 
	d="
M247.000000,364.002441 
	C246.287262,364.007263 245.574539,364.012054 244.505798,364.022308 
	C244.595490,363.151642 245.041168,362.275574 246.098114,361.301941 
	C255.839783,361.154449 264.970184,361.083344 274.100677,361.065674 
	C277.424164,361.059235 279.893951,360.191956 278.862000,356.174774 
	C277.796906,352.028625 276.462250,347.951721 275.055420,343.567871 
	C273.098145,341.169312 271.330963,339.047455 269.379333,336.617126 
	C265.805115,333.846222 262.415436,331.383728 258.653076,328.859772 
	C248.150269,324.276886 238.007584,324.734833 227.520538,328.818268 
	C224.424286,330.877838 221.663452,332.840607 218.902618,334.803375 
	C209.558655,344.274384 200.214691,353.745392 190.503113,363.750977 
	C188.182648,367.144073 186.229813,370.002594 184.144043,373.238922 
	C183.016357,378.742920 182.021591,383.869171 181.026825,388.995392 
	C180.685577,396.090942 180.280167,403.184235 180.027527,410.282959 
	C179.880020,414.427399 179.976746,418.580505 179.958374,423.168030 
	C172.905075,423.577972 165.856979,423.549683 158.365295,423.483459 
	C157.944534,406.552399 158.077972,389.657898 157.879745,372.767303 
	C157.847290,370.001434 156.353928,367.252747 154.912033,364.171021 
	C152.859558,363.561035 151.430832,363.276123 150.002106,362.991180 
	C149.506134,362.734711 149.010162,362.478210 148.058899,361.909393 
	C147.069168,361.067657 146.534714,360.538239 146.000244,360.008789 
	C146.985809,360.050934 148.208710,359.728485 148.920212,360.191620 
	C155.988617,364.792938 160.808151,360.696747 165.434357,356.014526 
	C173.488419,347.863007 181.462204,339.632202 189.496323,331.460907 
	C199.995651,320.782288 210.494186,310.102631 221.043488,299.473450 
	C229.450058,291.003235 237.904007,282.579529 246.394089,274.193054 
	C249.956589,270.674011 247.942947,267.676239 245.387039,265.149933 
	C240.538467,260.357483 235.342361,255.918564 230.373917,251.244247 
	C228.824707,249.786728 227.543610,248.044220 225.986557,246.102631 
	C225.833344,245.773071 225.812088,245.664139 226.306244,245.690765 
	C236.053680,245.784470 245.306992,245.849594 254.560257,245.919525 
	C258.753265,245.951218 260.300476,243.927994 259.166046,239.913895 
	C258.224518,236.582397 257.200470,233.274231 256.121399,229.609100 
	C253.756821,226.070587 251.483856,222.878677 249.210907,219.686768 
	C242.397919,212.872971 235.584930,206.059174 228.321533,198.806519 
	C226.959747,197.458725 226.048401,196.549789 225.137039,195.640869 
	C208.824844,179.243790 192.481659,162.877380 176.212753,146.437439 
	C167.317383,137.448532 158.564560,128.318726 149.708328,119.290833 
	C147.730881,117.275063 145.589294,115.420319 143.002289,113.085953 
	C139.646179,110.813629 136.811066,108.946793 133.582886,107.000748 
	C123.445908,103.342003 113.698875,102.720314 103.602264,106.959785 
	C100.090599,109.254791 96.923439,111.480522 93.756279,113.706253 
	C83.488197,123.822754 73.201767,133.920715 62.958122,144.061905 
	C55.420670,151.523972 47.939190,159.042557 40.161453,166.731049 
	C38.932304,164.445435 37.360268,162.019089 37.135036,159.473572 
	C36.527699,152.609558 36.494308,145.694748 36.113628,138.403534 
	C45.389706,128.681641 54.754025,119.324348 64.212921,110.063675 
	C65.719307,108.588852 67.650536,107.547966 70.160980,106.152054 
	C74.926628,105.985710 78.951035,106.304909 82.899757,105.895042 
	C91.980949,104.952438 101.163109,104.148804 108.769997,98.142586 
	C111.879990,95.687012 112.382706,92.989708 109.523285,90.144722 
	C102.692360,83.348282 95.760880,76.652901 89.269836,69.780029 
	C98.620056,69.424957 107.576416,69.332413 116.516975,68.907326 
	C119.023605,68.788147 121.483696,67.690262 123.970871,66.570091 
	C123.981430,56.733356 123.986259,47.367832 123.991081,38.002312 
	C131.726730,37.731014 139.462372,37.459713 147.607880,37.100410 
	C147.718796,46.143925 147.318237,55.273785 147.169907,64.407745 
	C147.108932,68.163155 149.883133,68.961349 153.020584,68.966072 
	C162.681900,68.980621 172.343201,68.995323 182.468842,69.009354 
	C184.013611,70.246414 185.094086,71.484093 186.131165,73.266891 
	C184.831146,74.760551 182.663620,76.703545 182.452759,76.510399 
	C178.459976,72.853065 176.821182,77.086639 174.774933,78.845741 
	C171.624771,81.553833 168.819290,84.664421 165.883820,87.620369 
	C160.543930,92.997482 160.672974,97.023552 166.439850,102.240562 
	C168.658783,104.247932 171.183945,105.935394 173.284546,108.051552 
	C180.014420,114.831238 186.541382,121.812569 193.281845,128.581436 
	C198.314011,133.634796 203.706375,138.333313 208.670471,143.449753 
	C217.416672,152.464340 225.773834,161.861130 234.635010,170.758118 
	C244.429703,180.592346 254.614639,190.037613 264.605591,199.677185 
	C265.431335,200.473892 266.002075,201.532135 266.814362,202.346085 
	C269.355072,204.891953 271.585358,208.007431 274.596954,209.777740 
	C286.342834,216.682449 304.353912,214.357437 314.189392,204.933990 
	C316.320312,202.892365 317.793335,200.171707 319.887848,198.083145 
	C329.773499,188.225601 339.867706,178.576141 349.697968,168.664429 
	C358.780884,159.506256 367.488831,149.975250 376.602936,140.849152 
	C390.321564,127.112450 404.214478,113.548759 418.121033,100.001610 
	C420.758118,97.432671 420.711243,95.234161 418.230560,92.774475 
	C413.142975,87.729828 408.223114,82.500427 402.908478,77.708321 
	C400.903351,75.900322 397.997131,75.091682 395.501648,73.827484 
	C396.532196,72.699432 397.562744,71.571373 399.302002,70.226311 
	C409.468842,69.994675 418.927551,69.913254 428.384857,69.994110 
	C432.984192,70.033432 435.048279,67.974358 435.001282,63.376278 
	C434.914825,54.914745 434.997040,46.451488 435.008942,37.988953 
	C442.738770,37.723278 450.468628,37.457600 458.512512,37.508652 
	C458.556702,45.800014 458.136108,53.773331 458.066040,61.749722 
	C458.012695,67.819344 459.252686,68.907387 465.529572,68.968239 
	C474.691010,69.057053 483.853760,69.014709 492.875793,69.333275 
	C491.660095,70.880707 490.660675,72.200050 489.496094,73.352463 
	C484.065277,78.726288 478.630676,84.097717 473.112274,89.381058 
	C470.000793,92.360016 470.110626,95.162270 473.389069,97.742424 
	C475.323944,99.265205 477.371735,101.104980 479.645416,101.651756 
	C486.872375,103.389717 494.190674,105.446556 501.545532,105.776031 
	C510.614044,106.182266 518.795776,105.829796 525.181885,114.680542 
	C530.322876,121.805740 538.092957,126.988388 544.331787,133.388428 
	C547.036316,136.162811 549.361694,136.578766 552.654907,134.959900 
	C562.027039,130.352829 571.466003,125.881744 580.878662,121.357162 
	C581.445251,121.789825 582.011780,122.222481 582.775085,122.838745 
	C582.938049,123.811485 582.904297,124.600616 582.818665,125.672379 
	C572.165771,129.882294 561.463379,133.568939 551.054504,137.952499 
	C549.116638,138.768616 547.506287,142.289490 547.231018,144.729767 
	C546.637085,149.994690 547.151428,155.374817 546.917053,160.694794 
	C546.817993,162.943115 545.974304,165.158630 545.240906,167.688385 
	C529.316284,152.395706 513.629761,136.793701 497.913971,121.221252 
	C495.200989,118.533051 492.363708,115.970268 489.007538,113.018967 
	C485.684296,110.683884 482.937347,108.679390 479.859619,106.510635 
	C469.246368,102.290237 458.981506,102.299973 448.398804,106.585022 
	C445.392334,108.545937 442.721680,110.401199 440.051025,112.256462 
	C420.262726,132.154419 400.491241,152.069168 380.680481,171.944748 
	C366.021057,186.652145 351.304565,201.302612 336.634186,215.999054 
	C335.471161,217.164139 334.469757,218.490570 333.031433,220.214355 
	C330.508118,223.750839 328.346649,226.814987 326.031494,230.236725 
	C325.121124,233.321121 324.312042,236.034714 323.620239,238.777878 
	C322.628937,242.708679 324.007874,245.009201 328.268280,244.973709 
	C337.260498,244.898819 346.252075,244.752472 355.243927,244.635437 
	C355.243927,244.635437 355.636658,244.799835 355.821716,244.905212 
	C354.731812,246.879761 353.699707,248.992416 352.125946,250.561981 
	C349.663635,253.017639 346.926147,255.227753 344.136108,257.315979 
	C341.276550,259.456268 338.213684,261.324982 334.049530,264.108002 
	C333.833252,267.859436 334.565063,272.620239 339.074768,276.998291 
	C353.725739,291.221588 367.915680,305.918701 382.349640,320.366943 
	C391.381989,329.408203 400.547607,338.316132 409.623352,347.314240 
	C412.099213,349.768951 414.343109,352.468445 416.914734,354.812927 
	C419.946869,357.577209 423.219299,360.077942 426.509094,363.178772 
	C426.095947,365.897522 425.108704,368.128296 425.098236,370.363647 
	C425.014984,388.136719 425.117188,405.910675 425.162476,423.684357 
	C417.743164,423.738770 410.323853,423.793182 402.437408,423.854828 
	C401.969360,412.204529 401.968475,400.546997 401.911774,388.025818 
	C400.607056,382.100006 399.358154,377.037811 397.948242,371.668793 
	C395.542694,368.215240 393.298157,365.068542 391.053589,361.921844 
	C382.407318,353.296936 373.761078,344.672058 364.587097,335.653229 
	C360.704407,332.845642 357.349396,330.431976 353.640961,327.879333 
	C343.492584,324.086700 333.729431,324.196991 323.659943,328.068359 
	C320.192871,330.399994 317.063263,332.651398 313.661316,335.099487 
	C311.170380,338.853821 308.951782,342.411530 306.550262,346.271179 
	C305.228607,351.382935 304.089844,356.192780 302.951111,361.002625 
	C302.635468,363.792999 302.061340,366.582001 302.046265,369.373993 
	C301.950317,387.160461 301.977631,404.947571 301.959381,423.173706 
	C294.890045,423.612000 287.825653,423.611084 280.338593,423.054260 
	C279.936584,405.387726 280.009155,388.276855 279.949524,371.166473 
	C279.929047,365.286682 278.732239,364.116089 272.915253,364.044556 
	C264.277985,363.938263 255.638535,364.007751 247.000000,364.002441 
z"/>
<path fill="#AC262F" opacity="1.000000" stroke="none" 
	d="
M395.232910,73.992393 
	C397.997131,75.091682 400.903351,75.900322 402.908478,77.708321 
	C408.223114,82.500427 413.142975,87.729828 418.230560,92.774475 
	C420.711243,95.234161 420.758118,97.432671 418.121033,100.001610 
	C404.214478,113.548759 390.321564,127.112450 376.602936,140.849152 
	C367.488831,149.975250 358.780884,159.506256 349.697968,168.664429 
	C339.867706,178.576141 329.773499,188.225601 319.887848,198.083145 
	C317.793335,200.171707 316.320312,202.892365 314.189392,204.933990 
	C304.353912,214.357437 286.342834,216.682449 274.596954,209.777740 
	C271.585358,208.007431 269.355072,204.891953 266.814362,202.346085 
	C266.002075,201.532135 265.431335,200.473892 264.605591,199.677185 
	C254.614639,190.037613 244.429703,180.592346 234.635010,170.758118 
	C225.773834,161.861130 217.416672,152.464340 208.670471,143.449753 
	C203.706375,138.333313 198.314011,133.634796 193.281845,128.581436 
	C186.541382,121.812569 180.014420,114.831238 173.284546,108.051552 
	C171.183945,105.935394 168.658783,104.247932 166.439850,102.240562 
	C160.672974,97.023552 160.543930,92.997482 165.883820,87.620369 
	C168.819290,84.664421 171.624771,81.553833 174.774933,78.845741 
	C176.821182,77.086639 178.459976,72.853065 182.452759,76.510399 
	C182.663620,76.703545 184.831146,74.760551 186.299957,73.521500 
	C189.585526,76.261703 192.658951,79.292427 195.998505,82.920250 
	C197.195251,84.337929 198.125854,85.158516 199.056473,85.979095 
	C202.163635,89.005257 205.270782,92.031418 208.373642,95.503860 
	C208.050720,96.362915 207.732086,96.775688 207.413467,97.188454 
	C207.559570,97.336136 207.705688,97.483818 207.851791,97.631493 
	C208.340836,97.166367 208.829880,96.701241 209.318909,96.236115 
	C216.990067,103.841156 224.661209,111.446182 232.449600,119.460190 
	C232.815063,120.028908 233.063309,120.188652 233.311539,120.348396 
	C236.630630,123.586609 239.949722,126.824814 243.257568,130.527130 
	C241.909927,134.686783 244.821106,132.660217 245.967438,133.011169 
	C248.523483,135.517471 251.079529,138.023788 253.762512,141.080032 
	C254.901779,142.428619 255.914093,143.227280 256.926392,144.025955 
	C260.037506,147.041672 263.148651,150.057404 266.246643,153.546387 
	C266.017426,154.598999 265.801361,155.178360 265.585297,155.757721 
	C266.674927,155.854523 267.764526,155.951340 268.854156,156.048141 
	C271.450165,158.548233 274.046204,161.048325 276.741577,164.137238 
	C276.053070,168.460846 278.423157,168.314468 280.903992,168.032028 
	C284.266815,171.195038 287.629639,174.358047 291.250916,177.764130 
	C322.371338,146.708801 353.201416,115.943199 384.644470,84.903809 
	C386.122223,83.605492 386.986969,82.580956 387.851746,81.556427 
	C390.222534,79.090050 392.593353,76.623680 395.232910,73.992393 
M343.969055,132.977570 
	C343.969055,132.977570 344.003540,132.951340 343.969055,132.977570 
M297.989838,179.958481 
	C297.989838,179.958481 298.032806,179.963882 297.989838,179.958481 
z"/>
<path fill="#5F1217" opacity="1.000000" stroke="none" 
	d="
M357.028412,73.377625 
	C356.465973,74.188660 356.012543,75.108910 355.325226,75.794846 
	C334.746735,96.332382 314.147034,116.848740 293.536743,137.354385 
	C292.963074,137.925140 292.236176,138.341888 290.794159,139.416763 
	C268.880432,117.516731 246.976456,95.626411 225.345184,73.335197 
	C226.073792,72.805267 226.529678,72.676239 227.452911,72.595200 
	C243.959137,72.732956 259.997986,72.822731 276.215698,73.196548 
	C280.322174,77.502548 284.281433,81.494232 288.164856,85.558365 
	C290.322327,87.816216 292.382965,87.874924 294.531525,85.629700 
	C298.640747,81.335594 302.750793,77.042297 307.283325,72.724625 
	C324.115906,72.542671 340.525665,72.384743 356.967468,72.513809 
	C357.009155,72.993073 357.018799,73.185349 357.028412,73.377625 
z"/>
<path fill="#AC262F" opacity="1.000000" stroke="none" 
	d="
M356.935394,72.226822 
	C340.525665,72.384743 324.115906,72.542671 306.899628,72.626617 
	C296.074341,72.672592 286.055603,72.792542 276.036865,72.912491 
	C259.997986,72.822731 243.959137,72.732956 227.128693,72.185379 
	C226.120941,71.453224 225.904739,71.178886 225.688538,70.904541 
	C236.765488,59.651009 247.787033,48.341599 258.998627,37.223839 
	C260.221527,36.011154 262.535736,35.377148 264.350372,35.363693 
	C282.479095,35.229328 300.609863,35.213333 318.738037,35.381058 
	C320.662720,35.398865 323.060333,36.307388 324.415619,37.639771 
	C335.323853,48.363823 346.034546,59.288769 356.919006,70.812325 
	C357.000061,71.723831 356.967712,71.975327 356.935394,72.226822 
z"/>
<path fill="#9E1F27" opacity="1.000000" stroke="none" 
	d="
M434.742126,37.788460 
	C434.997040,46.451488 434.914825,54.914745 435.001282,63.376278 
	C435.048279,67.974358 432.984192,70.033432 428.384857,69.994110 
	C418.927551,69.913254 409.468842,69.994675 399.547607,70.008965 
	C399.095306,48.297688 399.106140,26.586756 399.213776,4.411386 
	C405.920074,9.936119 412.645630,15.803388 419.102783,21.952511 
	C424.392792,26.990179 429.363220,32.363468 434.742126,37.788460 
z"/>
<path fill="#AA222B" opacity="1.000000" stroke="none" 
	d="
M280.766876,167.751923 
	C278.423157,168.314468 276.053070,168.460846 276.897095,164.436340 
	C278.178802,165.255005 279.404266,166.363403 280.766876,167.751923 
z"/>
<path fill="#AA222B" opacity="1.000000" stroke="none" 
	d="
M268.732483,155.800110 
	C267.764526,155.951340 266.674927,155.854523 265.585297,155.757721 
	C265.801361,155.178360 266.017426,154.598999 266.423431,153.842102 
	C267.279205,154.293747 267.945007,154.922928 268.732483,155.800110 
z"/>
<path fill="#AA222B" opacity="1.000000" stroke="none" 
	d="
M245.854034,132.752228 
	C244.821106,132.660217 241.909927,134.686783 243.433655,130.823364 
	C244.327545,131.268066 245.034088,131.880692 245.854034,132.752228 
z"/>
<path fill="#AA222B" opacity="1.000000" stroke="none" 
	d="
M256.799194,143.750488 
	C255.914093,143.227280 254.901779,142.428619 253.925476,141.373550 
	C254.865005,141.903107 255.768509,142.689056 256.799194,143.750488 
z"/>
<path fill="#AA222B" opacity="1.000000" stroke="none" 
	d="
M209.274292,96.096031 
	C208.829880,96.701241 208.340836,97.166367 207.851791,97.631493 
	C207.705688,97.483818 207.559570,97.336136 207.413467,97.188454 
	C207.732086,96.775688 208.050720,96.362915 208.556976,95.801460 
	C208.954529,95.676659 209.116211,95.777718 209.274292,96.096031 
z"/>
<path fill="#AA222B" opacity="1.000000" stroke="none" 
	d="
M198.924286,85.695145 
	C198.125854,85.158516 197.195251,84.337929 196.149033,83.215057 
	C196.952972,83.745575 197.872528,84.578384 198.924286,85.695145 
z"/>
<path fill="#AA222B" opacity="1.000000" stroke="none" 
	d="
M387.556824,81.717758 
	C386.986969,82.580956 386.122223,83.605492 384.923828,84.745438 
	C385.480804,83.866928 386.371368,82.873009 387.556824,81.717758 
z"/>
<path fill="#AA222B" opacity="1.000000" stroke="none" 
	d="
M233.261230,120.191498 
	C233.063309,120.188652 232.815063,120.028908 232.632812,119.755058 
	C232.922562,119.703156 233.093262,119.834373 233.261230,120.191498 
z"/>
<path fill="#9F1F27" opacity="1.000000" stroke="none" 
	d="
M356.967468,72.513809 
	C356.967712,71.975327 357.000061,71.723831 357.081787,71.095200 
	C357.267670,71.462181 357.404175,72.206299 357.284546,73.164017 
	C357.018799,73.185349 357.009155,72.993073 356.967468,72.513809 
z"/>
<path fill="#9F1F27" opacity="1.000000" stroke="none" 
	d="
M225.428528,71.089531 
	C225.904739,71.178886 226.120941,71.453224 226.661346,72.137383 
	C226.529678,72.676239 226.073792,72.805267 225.269272,73.003410 
	C225.003250,72.473183 225.085861,71.873848 225.428528,71.089531 
z"/>
<path fill="#AC262F" opacity="1.000000" stroke="none" 
	d="
M580.697571,121.069290 
	C571.466003,125.881744 562.027039,130.352829 552.654907,134.959900 
	C549.361694,136.578766 547.036316,136.162811 544.331787,133.388428 
	C538.092957,126.988388 530.322876,121.805740 525.181885,114.680542 
	C518.795776,105.829796 510.614044,106.182266 501.545532,105.776031 
	C494.190674,105.446556 486.872375,103.389717 479.645416,101.651756 
	C477.371735,101.104980 475.323944,99.265205 473.389069,97.742424 
	C470.110626,95.162270 470.000793,92.360016 473.112274,89.381058 
	C478.630676,84.097717 484.065277,78.726288 489.496094,73.352463 
	C490.660675,72.200050 491.660095,70.880707 493.184998,69.302048 
	C493.840332,68.942345 494.046265,68.918869 494.252228,68.895401 
	C504.163544,69.050377 514.075806,69.350731 523.985657,69.285606 
	C527.718323,69.261086 530.611206,70.088066 533.150696,72.996918 
	C536.408081,76.728165 540.076416,80.100754 543.861267,84.192276 
	C545.025085,85.530884 545.895325,86.305107 546.765503,87.079330 
	C558.015808,98.313354 569.266174,109.547386 580.697571,121.069290 
z"/>
<path fill="#9F1F27" opacity="1.000000" stroke="none" 
	d="
M494.291870,68.434601 
	C494.046265,68.918869 493.840332,68.942345 493.325134,68.997055 
	C483.853760,69.014709 474.691010,69.057053 465.529572,68.968239 
	C459.252686,68.907387 458.012695,67.819344 458.066040,61.749722 
	C458.136108,53.773331 458.556702,45.800014 458.921387,37.419865 
	C468.438995,27.743322 477.833740,18.443401 487.308624,9.225905 
	C489.182983,7.402452 491.365570,5.895815 493.723022,4.112884 
	C494.137207,25.313057 494.234344,46.643433 494.291870,68.434601 
z"/>
<path fill="#9F1F27" opacity="1.000000" stroke="none" 
	d="
M546.636780,86.815903 
	C545.895325,86.305107 545.025085,85.530884 544.044067,84.476624 
	C544.791443,84.981880 545.649780,85.767174 546.636780,86.815903 
z"/>
<path fill="#9F1F27" opacity="1.000000" stroke="none" 
	d="
M123.726501,37.802452 
	C123.986259,47.367832 123.981430,56.733356 123.506073,66.564392 
	C111.337402,67.023247 99.639259,67.016594 87.941116,67.009949 
	C87.909447,46.307819 87.877785,25.605690 87.937256,4.439898 
	C90.123238,5.585709 92.402786,7.005601 94.281967,8.836436 
	C104.064735,18.367556 113.745590,28.003281 123.726501,37.802452 
z"/>
<path fill="#AC262F" opacity="1.000000" stroke="none" 
	d="
M88.870003,69.916710 
	C95.760880,76.652901 102.692360,83.348282 109.523285,90.144722 
	C112.382706,92.989708 111.879990,95.687012 108.769997,98.142586 
	C101.163109,104.148804 91.980949,104.952438 82.899757,105.895042 
	C78.951035,106.304909 74.926628,105.985710 70.468605,105.997101 
	C66.692574,98.287819 63.440369,90.554436 60.053844,82.880341 
	C58.256851,78.808220 56.226742,74.838982 54.174194,70.511429 
	C58.962418,69.919540 63.875290,69.504753 68.794991,69.394531 
	C74.600685,69.264458 80.412277,69.397812 86.898643,69.561630 
	C88.007317,69.776428 88.438660,69.846565 88.870003,69.916710 
z"/>
<path fill="#891A21" opacity="1.000000" stroke="none" 
	d="
M89.269836,69.780029 
	C88.438660,69.846565 88.007317,69.776428 87.375519,69.615288 
	C87.364799,68.895668 87.554535,68.267059 87.842697,67.324196 
	C99.639259,67.016594 111.337402,67.023247 123.500336,67.035599 
	C121.483696,67.690262 119.023605,68.788147 116.516975,68.907326 
	C107.576416,69.332413 98.620056,69.424957 89.269836,69.780029 
z"/>
<path fill="#AA222B" opacity="1.000000" stroke="none" 
	d="
M6.296849,126.168793 
	C8.228120,126.799599 10.454879,127.603348 12.842141,128.692963 
	C10.865875,128.099808 8.729106,127.220764 6.296849,126.168793 
z"/>
<path fill="#470E11" opacity="1.000000" stroke="none" 
	d="
M448.734650,106.479370 
	C458.981506,102.299973 469.246368,102.290237 479.732056,106.878525 
	C475.636932,116.613350 471.338562,125.816017 467.040192,135.018692 
	C465.320435,137.274231 463.477295,137.893967 461.139954,134.853210 
	C459.673035,131.355392 458.522400,128.424759 457.253448,125.546272 
	C454.445404,119.176727 451.577911,112.833397 448.734650,106.479370 
z"/>
<path fill="#891A21" opacity="1.000000" stroke="none" 
	d="
M355.078766,244.399826 
	C346.252075,244.752472 337.260498,244.898819 328.268280,244.973709 
	C324.007874,245.009201 322.628937,242.708679 323.620239,238.777878 
	C324.312042,236.034714 325.121124,233.321121 326.379822,230.316086 
	C328.726593,230.756622 330.616608,231.378082 332.408081,232.211426 
	C339.297760,235.416336 346.155853,238.689102 353.025726,241.936569 
	C353.654999,242.679108 354.284302,243.421661 355.078766,244.399826 
z"/>
<path fill="#561015" opacity="1.000000" stroke="none" 
	d="
M467.347900,134.882584 
	C471.338562,125.816017 475.636932,116.613350 480.062866,107.042793 
	C482.937347,108.679390 485.684296,110.683884 488.705505,112.879250 
	C481.871735,120.295570 474.763672,127.521019 467.347900,134.882584 
z"/>
<path fill="#561015" opacity="1.000000" stroke="none" 
	d="
M448.398804,106.585022 
	C451.577911,112.833397 454.445404,119.176727 457.253448,125.546272 
	C458.522400,128.424759 459.673035,131.355392 460.946655,134.628403 
	C454.787964,128.910080 448.520447,122.865173 442.372009,116.701431 
	C441.379211,115.706146 440.916443,114.182144 440.129822,112.579498 
	C442.721680,110.401199 445.392334,108.545937 448.398804,106.585022 
z"/>
<path fill="#6B141A" opacity="1.000000" stroke="none" 
	d="
M352.888062,241.631287 
	C346.155853,238.689102 339.297760,235.416336 332.408081,232.211426 
	C330.616608,231.378082 328.726593,230.756622 326.533508,229.958496 
	C328.346649,226.814987 330.508118,223.750839 332.936737,220.549667 
	C339.719391,227.383774 346.234924,234.354904 352.888062,241.631287 
z"/>
<path fill="#470E11" opacity="1.000000" stroke="none" 
	d="
M103.946762,106.890518 
	C113.698875,102.720314 123.445908,103.342003 133.517166,107.360962 
	C132.952774,110.087456 132.180664,112.430206 131.147171,114.651321 
	C127.823143,121.795181 124.402657,128.894165 121.019363,136.010452 
	C119.453857,135.832581 117.888336,135.654694 116.037262,134.903503 
	C114.028900,130.614075 112.212036,126.938065 110.605728,123.172241 
	C108.305428,117.779404 106.158936,112.320953 103.946762,106.890518 
z"/>
<path fill="#891A21" opacity="1.000000" stroke="none" 
	d="
M256.213013,229.955719 
	C257.200470,233.274231 258.224518,236.582397 259.166046,239.913895 
	C260.300476,243.927994 258.753265,245.951218 254.560257,245.919525 
	C245.306992,245.849594 236.053680,245.784470 226.322311,245.637650 
	C226.723694,244.793381 227.603165,244.028854 229.079407,243.006104 
	C238.521790,238.483810 247.367401,234.219757 256.213013,229.955719 
z"/>
<path fill="#561015" opacity="1.000000" stroke="none" 
	d="
M121.329163,135.875488 
	C124.402657,128.894165 127.823143,121.795181 131.147171,114.651321 
	C132.180664,112.430206 132.952774,110.087456 133.910248,107.440170 
	C136.811066,108.946793 139.646179,110.813629 142.718796,112.921547 
	C142.012985,114.885803 141.408417,116.952881 140.068130,118.273026 
	C134.039200,124.211388 127.801430,129.937744 121.329163,135.875488 
z"/>
<path fill="#561015" opacity="1.000000" stroke="none" 
	d="
M103.602264,106.959785 
	C106.158936,112.320953 108.305428,117.779404 110.605728,123.172241 
	C112.212036,126.938065 114.028900,130.614075 115.849014,134.677094 
	C108.697563,128.110107 101.448799,121.196205 93.978165,113.994278 
	C96.923439,111.480522 100.090599,109.254791 103.602264,106.959785 
z"/>
<path fill="#6B141A" opacity="1.000000" stroke="none" 
	d="
M256.121399,229.609100 
	C247.367401,234.219757 238.521790,238.483810 229.329834,242.842255 
	C232.459900,238.987244 235.933136,235.035049 239.413666,231.089249 
	C242.570953,227.509888 245.736176,223.937515 249.054413,220.024414 
	C251.483856,222.878677 253.756821,226.070587 256.121399,229.609100 
z"/>
<path fill="#6B141A" opacity="1.000000" stroke="none" 
	d="
M225.256439,195.958252 
	C226.048401,196.549789 226.959747,197.458725 228.038895,198.644592 
	C227.263077,198.039551 226.319458,197.157578 225.256439,195.958252 
z"/>
<path fill="#891A21" opacity="1.000000" stroke="none" 
	d="
M59.546841,336.906769 
	C60.487347,331.061462 61.887638,325.229767 63.693306,319.440979 
	C65.150047,320.514221 66.028069,321.890259 67.281013,322.518524 
	C75.131821,326.454895 83.066208,330.224579 90.972931,334.049408 
	C91.514198,334.579651 92.055473,335.109894 92.788803,335.849915 
	C81.989449,336.346619 70.998039,336.633484 59.546841,336.906769 
z"/>
<path fill="#891A21" opacity="1.000000" stroke="none" 
	d="
M520.294373,321.946289 
	C521.516785,327.018951 522.739136,332.091583 523.970093,337.580444 
	C513.229797,337.738861 502.480896,337.481110 491.341248,337.073120 
	C490.950439,336.922913 490.961182,336.445679 491.320587,336.110535 
	C501.218109,331.165710 510.756256,326.556000 520.294373,321.946289 
z"/>
<path fill="#9F1F27" opacity="1.000000" stroke="none" 
	d="
M425.185181,423.710449 
	C425.117188,405.910675 425.014984,388.136719 425.098236,370.363647 
	C425.108704,368.128296 426.095947,365.897522 426.817200,363.333069 
	C437.113922,359.085938 447.224121,355.170288 457.667786,351.129150 
	C458.000793,379.304047 458.000488,407.604462 457.999786,435.904846 
	C457.999756,437.403107 458.204285,438.938354 457.945679,440.390900 
	C457.560791,442.552643 456.847595,444.655914 456.274109,446.784088 
	C454.517242,445.689941 452.505219,444.860443 451.047913,443.455597 
	C444.936493,437.564117 439.145721,431.330872 432.879639,425.615173 
	C431.250977,424.129547 428.327667,424.063232 425.635803,423.528564 
	C425.272644,423.712067 425.207916,423.736542 425.185181,423.710449 
z"/>
<path fill="#9E1F27" opacity="1.000000" stroke="none" 
	d="
M145.696701,359.916565 
	C146.534714,360.538239 147.069168,361.067657 147.803497,361.796326 
	C146.495224,362.443512 144.695023,363.656555 143.527924,363.211060 
	C137.465775,360.896881 131.565048,358.159790 124.482559,355.080688 
	C126.687271,354.561523 127.601952,354.346161 128.761093,354.062988 
	C129.451065,353.991516 129.896576,353.987793 130.676468,353.978577 
	C131.010849,353.973083 131.501389,353.989655 131.990051,354.211334 
	C133.652649,354.948486 134.826569,355.463959 136.000488,355.979431 
	C136.000488,355.979431 136.499954,355.989227 136.994461,356.221954 
	C139.326645,357.295502 141.164322,358.136322 143.001984,358.977142 
	C143.799042,359.259552 144.596100,359.541962 145.696701,359.916565 
z"/>
<path fill="#AA222B" opacity="1.000000" stroke="none" 
	d="
M142.801270,358.705872 
	C141.164322,358.136322 139.326645,357.295502 137.244171,356.227356 
	C138.866440,356.811554 140.733490,357.623108 142.801270,358.705872 
z"/>
<path fill="#AA222B" opacity="1.000000" stroke="none" 
	d="
M135.773132,355.748810 
	C134.826569,355.463959 133.652649,354.948486 132.235352,354.219116 
	C133.176575,354.509521 134.361160,355.013855 135.773132,355.748810 
z"/>
<path fill="#6B141A" opacity="1.000000" stroke="none" 
	d="
M520.198059,321.595734 
	C510.756256,326.556000 501.218109,331.165710 491.333130,335.872192 
	C494.582672,331.889130 498.158539,327.790863 501.781311,323.734558 
	C505.409943,319.671631 509.085480,315.650574 512.875244,311.298218 
	C515.373901,314.405182 517.737793,317.825165 520.198059,321.595734 
z"/>
<path fill="#6B141A" opacity="1.000000" stroke="none" 
	d="
M90.845764,333.731750 
	C83.066208,330.224579 75.131821,326.454895 67.281013,322.518524 
	C66.028069,321.890259 65.150047,320.514221 63.922356,319.166992 
	C65.637566,316.352081 67.529099,313.854065 69.672623,311.141785 
	C75.324898,316.498566 80.766197,322.030823 86.101479,327.663513 
	C87.786316,329.442261 89.187561,331.489624 90.845764,333.731750 
z"/>
<path fill="#891A21" opacity="1.000000" stroke="none" 
	d="
M303.424622,361.002136 
	C304.089844,356.192780 305.228607,351.382935 306.926636,346.365540 
	C316.655731,350.440948 325.825592,354.723877 334.995422,359.006836 
	C335.081665,359.373322 335.167908,359.739838 335.322510,360.376770 
	C324.893311,360.765350 314.395721,360.883514 303.424622,361.002136 
z"/>
<path fill="#9E1F27" opacity="1.000000" stroke="none" 
	d="
M150.106125,363.296692 
	C151.430832,363.276123 152.859558,363.561035 154.641739,363.932251 
	C153.072556,367.645569 151.583466,366.289215 150.106125,363.296692 
z"/>
<path fill="#9F1F27" opacity="1.000000" stroke="none" 
	d="
M247.056442,364.350525 
	C255.638535,364.007751 264.277985,363.938263 272.915253,364.044556 
	C278.732239,364.116089 279.929047,365.286682 279.949524,371.166473 
	C280.009155,388.276855 279.936584,405.387726 279.892059,423.018188 
	C279.868225,423.538025 279.641357,423.647705 279.518677,423.667633 
	C276.239166,419.045685 275.876434,419.129333 272.193390,422.973541 
	C265.511322,429.947998 258.696686,436.798340 251.808365,443.569214 
	C250.765213,444.594604 249.027405,444.913330 247.610916,445.558899 
	C247.088516,444.051727 246.136612,442.551117 246.113403,441.036255 
	C245.962906,431.210052 246.008057,421.380798 246.001724,411.552521 
	C245.994659,400.558044 245.894272,389.562012 246.052078,378.569794 
	C246.118530,373.941956 246.742401,369.322083 247.056442,364.350525 
z"/>
<path fill="#891A21" opacity="1.000000" stroke="none" 
	d="
M181.492798,388.990295 
	C182.021591,383.869171 183.016357,378.742920 184.458817,373.363617 
	C193.940994,377.395325 202.975464,381.680084 212.009933,385.964874 
	C212.561584,386.470795 213.113235,386.976685 213.849731,387.693237 
	C207.142227,388.260986 200.252396,388.682831 193.356583,388.949524 
	C189.562515,389.096222 185.758362,388.981842 181.492798,388.990295 
z"/>
<path fill="#891A21" opacity="1.000000" stroke="none" 
	d="
M398.109253,371.975647 
	C399.358154,377.037811 400.607056,382.100006 401.904053,387.553772 
	C391.231323,387.734528 380.510498,387.523682 369.403320,387.177765 
	C370.181702,386.160400 371.346405,385.278076 373.105469,384.104370 
	C381.836304,379.867188 389.972778,375.921417 398.109253,371.975647 
z"/>
<path fill="#470E11" opacity="1.000000" stroke="none" 
	d="
M323.997406,327.988098 
	C333.729431,324.196991 343.492584,324.086700 353.603760,328.263306 
	C352.918823,331.576202 352.095825,334.446564 350.880737,337.140045 
	C348.023499,343.473633 344.978973,349.722778 342.010223,356.006073 
	C340.530090,356.706482 339.049988,357.406860 337.182922,357.705261 
	C335.127289,353.720215 333.376556,350.172638 331.808136,346.546173 
	C329.144073,340.386322 326.594879,334.176758 323.997406,327.988098 
z"/>
<path fill="#6B141A" opacity="1.000000" stroke="none" 
	d="
M335.005249,358.748932 
	C325.825592,354.723877 316.655731,350.440948 307.109497,346.063629 
	C308.951782,342.411530 311.170380,338.853821 313.816589,335.405396 
	C321.173553,343.001495 328.102936,350.488312 335.032318,357.975159 
	C335.026550,358.147125 335.020813,358.319061 335.005249,358.748932 
z"/>
<path fill="#561015" opacity="1.000000" stroke="none" 
	d="
M335.362244,357.978210 
	C328.102936,350.488312 321.173553,343.001495 314.088928,335.208740 
	C317.063263,332.651398 320.192871,330.399994 323.659943,328.068359 
	C326.594879,334.176758 329.144073,340.386322 331.808136,346.546173 
	C333.376556,350.172638 335.127289,353.720215 336.904663,357.645630 
	C336.572968,357.985779 336.132568,357.983521 335.362244,357.978210 
z"/>
<path fill="#561015" opacity="1.000000" stroke="none" 
	d="
M342.321411,355.872559 
	C344.978973,349.722778 348.023499,343.473633 350.880737,337.140045 
	C352.095825,334.446564 352.918823,331.576202 353.957153,328.402283 
	C357.349396,330.431976 360.704407,332.845642 364.297424,335.515350 
	C359.270111,340.768463 354.039764,345.803192 348.720886,350.742615 
	C346.800690,352.525757 344.668182,354.080261 342.321411,355.872559 
z"/>
<path fill="#6B141A" opacity="1.000000" stroke="none" 
	d="
M397.948242,371.668793 
	C389.972778,375.921417 381.836304,379.867188 373.354828,383.914978 
	C374.602295,381.584167 375.956482,378.946533 377.835907,376.760468 
	C382.009125,371.906311 386.445618,367.278473 390.914185,362.240112 
	C393.298157,365.068542 395.542694,368.215240 397.948242,371.668793 
z"/>
<path fill="#470E11" opacity="1.000000" stroke="none" 
	d="
M227.855972,328.721466 
	C238.007584,324.734833 248.150269,324.276886 258.583984,329.232788 
	C257.849670,332.242371 256.902496,334.858704 255.755829,337.384399 
	C252.914261,343.643402 249.981506,349.861023 247.067810,356.403900 
	C247.019928,357.122986 246.989609,357.533447 246.959290,357.943878 
	C244.776382,357.779694 242.593475,357.615540 240.144882,356.856262 
	C238.538956,353.084259 237.236084,349.891022 235.850540,346.734039 
	C233.210602,340.718903 230.523483,334.724487 227.855972,328.721466 
z"/>
<path fill="#891A21" opacity="1.000000" stroke="none" 
	d="
M275.245544,343.844513 
	C276.462250,347.951721 277.796906,352.028625 278.862000,356.174774 
	C279.893951,360.191956 277.424164,361.059235 274.100677,361.065674 
	C264.970184,361.083344 255.839783,361.154449 246.364532,361.144073 
	C246.220398,360.826660 246.433594,360.580505 247.166351,360.061798 
	C255.402359,355.979218 263.191925,352.295532 270.815002,348.294647 
	C272.583282,347.366547 273.783783,345.356628 275.245544,343.844513 
z"/>
<path fill="#6B141A" opacity="1.000000" stroke="none" 
	d="
M275.055420,343.567871 
	C273.783783,345.356628 272.583282,347.366547 270.815002,348.294647 
	C263.191925,352.295532 255.402359,355.979218 247.333618,359.883850 
	C246.988220,359.535187 246.982605,359.081085 246.968140,358.285461 
	C246.989609,357.533447 247.019928,357.122986 247.403214,356.309326 
	C250.709625,353.337433 253.663895,350.769714 256.616302,348.199829 
	C260.932831,344.442505 265.248047,340.683746 269.563812,336.925568 
	C271.330963,339.047455 273.098145,341.169312 275.055420,343.567871 
z"/>
<path fill="#6B141A" opacity="1.000000" stroke="none" 
	d="
M211.875519,385.656250 
	C202.975464,381.680084 193.940994,377.395325 184.591736,372.985840 
	C186.229813,370.002594 188.182648,367.144073 190.368195,364.072571 
	C197.647644,371.022308 204.694366,378.184967 211.875519,385.656250 
z"/>
<path fill="#561015" opacity="1.000000" stroke="none" 
	d="
M227.520538,328.818268 
	C230.523483,334.724487 233.210602,340.718903 235.850540,346.734039 
	C237.236084,349.891022 238.538956,353.084259 239.949097,356.626953 
	C233.075150,349.814941 226.131271,342.637146 219.045013,335.131348 
	C221.663452,332.840607 224.424286,330.877838 227.520538,328.818268 
z"/>
<path fill="#561015" opacity="1.000000" stroke="none" 
	d="
M269.379333,336.617126 
	C265.248047,340.683746 260.932831,344.442505 256.616302,348.199829 
	C253.663895,350.769714 250.709625,353.337433 247.420761,356.000671 
	C249.981506,349.861023 252.914261,343.643402 255.755829,337.384399 
	C256.902496,334.858704 257.849670,332.242371 258.956665,329.294281 
	C262.415436,331.383728 265.805115,333.846222 269.379333,336.617126 
z"/>
<path fill="#AA222B" opacity="1.000000" stroke="none" 
	d="
M343.986298,132.964447 
	C344.003540,132.951340 343.969055,132.977570 343.986298,132.964447 
z"/>
<path fill="#AA222B" opacity="1.000000" stroke="none" 
	d="
M298.011322,179.961182 
	C298.032806,179.963882 297.989838,179.958481 298.011322,179.961182 
z"/>
<path fill="#9F1F27" opacity="1.000000" stroke="none" 
	d="
M276.215698,73.196548 
	C286.055603,72.792542 296.074341,72.672592 306.476807,72.650650 
	C302.750793,77.042297 298.640747,81.335594 294.531525,85.629700 
	C292.382965,87.874924 290.322327,87.816216 288.164856,85.558365 
	C284.281433,81.494232 280.322174,77.502548 276.215698,73.196548 
z"/>
</svg>